<?xml version="1.0" encoding="utf-8"?>
<!-- Generator: Adobe Illustrator 24.0.2, SVG Export Plug-In . SVG Version: 6.00 Build 0)  -->
<svg version="1.1" id="Capa_1" xmlns="http://www.w3.org/2000/svg" xmlns:xlink="http://www.w3.org/1999/xlink" x="0px" y="0px"
	 viewBox="0 0 32 32" style="enable-background:new 0 0 32 32;" xml:space="preserve">
<style type="text/css">
	.st0{fill:#CE5BEA;}
</style>
<g>
	<path class="st0" d="M25.8,10.63h-1.94V8.19c0-4.48-3.65-8.12-8.13-8.12c-4.48,0-8.12,3.65-8.12,8.12v2.44H5.65
		c-1.52,0-2.77,1.25-2.77,2.77v15.82c0,1.54,1.25,2.79,2.77,2.79H25.8c1.54,0,2.8-1.25,2.8-2.79V13.39
		C28.59,11.87,27.34,10.63,25.8,10.63z M11.27,8.19c0-2.45,1.99-4.45,4.45-4.45c2.46,0,4.45,2,4.45,4.45v2.44h-8.9V8.19z
		 M17.23,24.68v4.04c0,0.17-0.15,0.3-0.32,0.3h-1.94c-0.15,0-0.29-0.12-0.29-0.3v-4.04c-1.33-0.51-2.28-1.79-2.28-3.31
		c0-1.95,1.59-3.55,3.55-3.55c1.96,0,3.55,1.59,3.55,3.55C19.5,22.89,18.55,24.17,17.23,24.68z"/>
</g>
</svg>
