<?xml version="1.0" encoding="utf-8"?>
<!-- Generator: Adobe Illustrator 24.0.2, SVG Export Plug-In . SVG Version: 6.00 Build 0)  -->
<svg version="1.1" id="Layer_1" xmlns="http://www.w3.org/2000/svg" xmlns:xlink="http://www.w3.org/1999/xlink" x="0px" y="0px"
	 viewBox="0 0 55.23 70.6" style="enable-background:new 0 0 55.23 70.6;" xml:space="preserve">
<style type="text/css">
	.st0{fill:#FFFFFF;}
</style>
<path class="st0" d="M54.89,0.55C54.6,0.2,54.18,0,53.74,0H41.19c-0.1,0-1.79,0.02-1.79,0.02c-0.76-0.01-1.38,0.52-1.38,1.16
	l-0.05,2.97l-0.02,1.07h0H27.62h-0.01H17.28c0,0,0,0,0,0l-0.02-1.07l-0.05-2.97c0-0.64-0.62-1.17-1.38-1.16c0,0-1.69-0.02-1.79-0.02
	H1.49C1.05,0,0.63,0.2,0.34,0.55c-0.28,0.34-0.4,0.8-0.32,1.25c0.04,0.22,0.38,1.5,1,3.43c2.34,7.13,8.73,23.11,19.29,26.63
	c0.04,0.03,0.08,0.06,0.12,0.09c0.57,0.45,1.19,0.84,1.86,1.16c-0.22,0.15-0.43,0.31-0.6,0.48c-0.59,0.55-0.92,1.18-0.92,1.86
	c0,1.25,1.13,2.35,2.86,3.03c-0.36,3.17-0.97,6.94-1.99,10.07h-0.07c-0.02,0.06-0.01-0.08-0.03-0.03h-5.63
	c-0.6,0-1.11,0.61-1.11,1.12v16.03v0.81h-3.15v4.13h31.91v-4.13h-3.15V49.63c0-0.51-0.46-1.12-1.06-1.12h-2.43h-3.2
	c-0.02-0.05-0.06,0.08-0.08,0.03h-0.07c-1.02-3.13-1.63-6.89-1.99-10.07c1.73-0.68,2.86-1.78,2.86-3.03c0-0.68-0.34-1.32-0.92-1.87
	c-0.18-0.17-0.39-0.32-0.61-0.47c0.67-0.32,1.29-0.71,1.86-1.16c0.04-0.03,0.08-0.06,0.12-0.09c10.56-3.52,16.95-19.5,19.29-26.63
	c0.63-1.92,0.96-3.21,1-3.43C55.29,1.35,55.17,0.89,54.89,0.55z M3.98,5.22c-0.27-0.85-0.48-1.6-0.62-2.2l10.51,0.01l-0.08,1.12
	l-0.08,1.07H13.7c0,0-0.03,0.88-0.03,2.31c0,0.01,0,0.01,0,0.02c0,0.63,0.01,1.37,0.03,2.19c0,0.07,0,0.13,0,0.2
	c0.05,1.94,0.17,4.3,0.43,6.71c0.29,3.04,0.78,6.22,1.91,9.05C9.96,20.46,5.71,10.69,3.98,5.22z M51.25,5.22
	c-1.73,5.46-5.98,15.24-12.06,20.47c1.13-2.83,1.61-6.01,1.91-9.05c0.26-2.41,0.38-4.77,0.43-6.71c0-0.07,0-0.13,0-0.2
	c0.02-0.82,0.03-1.56,0.03-2.19c0-0.01,0-0.01,0-0.02c0-1.42-0.03-2.31-0.03-2.31h-0.01l-0.08-1.07l-0.08-1.12l10.51-0.01
	C51.73,3.63,51.52,4.37,51.25,5.22z"/>
</svg>
