<?xml version="1.0" encoding="utf-8"?>
<!-- Generator: Adobe Illustrator 24.0.2, SVG Export Plug-In . SVG Version: 6.00 Build 0)  -->
<svg version="1.1" id="Layer_1" xmlns="http://www.w3.org/2000/svg" xmlns:xlink="http://www.w3.org/1999/xlink" x="0px" y="0px"
	 viewBox="0 0 50 50" style="enable-background:new 0 0 50 50;" xml:space="preserve">
<style type="text/css">
	.st0{fill:#EA5B5B;}
	.st1{fill:#FFFFFF;}
</style>
<path class="st0" d="M25,50L25,50C11.19,50,0,38.81,0,25v0C0,11.19,11.19,0,25,0h0c13.81,0,25,11.19,25,25v0
	C50,38.81,38.81,50,25,50z"/>
<path class="st1" d="M37.26,33.79l-8.19-9.16l7.85-8.61c0.31-0.31,0.51-0.63,0.63-0.97c0.11-0.34,0.17-0.68,0.17-1.02
	c0-0.72-0.31-1.36-0.94-1.92c-0.63-0.56-1.39-0.84-2.31-0.84c-1.06,0-1.97,0.46-2.73,1.38l-6.48,7.73l-7-7.84
	c-0.76-0.85-1.69-1.28-2.79-1.28c-0.91,0-1.72,0.29-2.42,0.87c-0.7,0.58-1.06,1.32-1.06,2.2c0,0.68,0.25,1.3,0.74,1.84l8.2,9.17
	l-7.91,8.71c-0.57,0.61-0.86,1.26-0.86,1.95c0,0.75,0.37,1.39,1.11,1.92s1.49,0.79,2.25,0.79c1.1,0,2.01-0.43,2.73-1.28l6.68-7.61
	l6.8,7.61c0.76,0.89,1.69,1.33,2.79,1.33c0.88,0,1.67-0.31,2.39-0.92c0.72-0.61,1.08-1.35,1.08-2.2
	C38,34.95,37.75,34.33,37.26,33.79z"/>
</svg>
