<?xml version="1.0" encoding="utf-8"?>
<!-- Generator: Adobe Illustrator 24.0.2, SVG Export Plug-In . SVG Version: 6.00 Build 0)  -->
<svg version="1.1" id="Capa_1" xmlns="http://www.w3.org/2000/svg" xmlns:xlink="http://www.w3.org/1999/xlink" x="0px" y="0px"
	 viewBox="0 0 52 52" style="enable-background:new 0 0 52 52;" xml:space="preserve">
<style type="text/css">
	.st0{fill:#40CAA7;}
	.st1{fill:#FFFFFF;}
	.st2{fill:none;}
	.st3{fill-rule:evenodd;clip-rule:evenodd;fill:#EA5B5B;}
	.st4{fill-rule:evenodd;clip-rule:evenodd;fill:#FFFFFF;}
</style>
<path class="st0" d="M26,51L26,51C12.19,51,1,39.81,1,26v0C1,12.19,12.19,1,26,1h0c13.81,0,25,11.19,25,25v0
	C51,39.81,39.81,51,26,51z"/>
<g>
	<path class="st1" d="M38.13,14.87c-2.23-1.02-4.62-1.78-7.12-2.21c-0.05-0.01-0.09,0.01-0.11,0.05c-0.31,0.55-0.65,1.26-0.89,1.82
		c-2.69-0.4-5.37-0.4-8,0c-0.24-0.57-0.59-1.27-0.9-1.82c-0.02-0.04-0.07-0.06-0.11-0.05c-2.5,0.43-4.89,1.18-7.12,2.21
		c-0.02,0.01-0.04,0.02-0.05,0.04C9.28,21.69,8.03,28.3,8.64,34.83c0,0.03,0.02,0.06,0.05,0.08c2.99,2.2,5.89,3.53,8.74,4.42
		c0.05,0.01,0.09,0,0.12-0.04c0.67-0.92,1.27-1.89,1.79-2.91c0.03-0.06,0-0.13-0.06-0.15c-0.95-0.36-1.86-0.8-2.73-1.3
		c-0.07-0.04-0.07-0.14-0.01-0.19c0.18-0.14,0.37-0.28,0.54-0.42c0.03-0.03,0.08-0.03,0.11-0.02c5.73,2.62,11.93,2.62,17.59,0
		c0.04-0.02,0.08-0.01,0.11,0.01c0.18,0.14,0.36,0.29,0.54,0.43c0.06,0.05,0.06,0.15-0.01,0.19c-0.87,0.51-1.78,0.94-2.73,1.3
		c-0.06,0.02-0.09,0.1-0.06,0.16c0.53,1.02,1.13,1.99,1.79,2.91c0.03,0.04,0.08,0.06,0.12,0.04c2.86-0.88,5.76-2.22,8.75-4.42
		c0.03-0.02,0.04-0.05,0.05-0.08c0.73-7.55-1.22-14.11-5.17-19.92C38.16,14.89,38.15,14.88,38.13,14.87z M20.2,30.86
		c-1.72,0-3.15-1.58-3.15-3.53s1.39-3.53,3.15-3.53c1.77,0,3.17,1.6,3.15,3.53C23.34,29.27,21.95,30.86,20.2,30.86z M31.83,30.86
		c-1.72,0-3.15-1.58-3.15-3.53s1.39-3.53,3.15-3.53c1.77,0,3.17,1.6,3.15,3.53C34.97,29.27,33.59,30.86,31.83,30.86z"/>
</g>
<rect x="-13.63" y="-1.91" class="st2" width="71" height="55"/>
<path class="st3" d="M45.22,13.56L45.22,13.56c-3.75,0-6.78-3.04-6.78-6.78v0c0-3.75,3.04-6.78,6.78-6.78h0
	c3.75,0,6.78,3.04,6.78,6.78v0C52,10.52,48.96,13.56,45.22,13.56z"/>
<path class="st4" d="M48.87,5.01l-0.94-0.94V4.05l0,0l-0.94-0.94c-0.05-0.05-0.12-0.07-0.19-0.07c-0.09,0-0.16,0.02-0.21,0.07
	l-4.55,4.56c-0.03,0.03-0.07,0.09-0.09,0.14l-0.49,2.38c-0.02,0.09,0.02,0.17,0.07,0.24c0.05,0.05,0.12,0.07,0.21,0.07
	c0.02,0,0.03,0,0.05,0l2.36-0.49c0.05-0.02,0.1-0.03,0.14-0.07l4.56-4.56C48.97,5.28,48.97,5.11,48.87,5.01L48.87,5.01z"/>
</svg>
