<?xml version="1.0" encoding="utf-8"?>
<!-- Generator: Adobe Illustrator 24.0.2, SVG Export Plug-In . SVG Version: 6.00 Build 0)  -->
<svg version="1.1" id="OBJECTS" xmlns="http://www.w3.org/2000/svg" xmlns:xlink="http://www.w3.org/1999/xlink" x="0px" y="0px"
	 viewBox="0 0 394.82 473.36" style="enable-background:new 0 0 394.82 473.36;" xml:space="preserve">
<style type="text/css">
	.st0{fill-rule:evenodd;clip-rule:evenodd;fill:#D86060;}
	.st1{fill:#D86060;}
</style>
<path class="st0" d="M361.3,119.62c-17.96-17.95-41.82-27.84-67.2-27.84c-1.05,0-2.09,0.02-3.14,0.05
	c-4.39-21.35-15.09-41.12-30.79-56.59c-9.2-9.06-19.78-16.36-31.46-21.72c-12.08-5.55-25-8.83-38.38-9.77
	c-2.6-0.18-5.23-0.27-7.82-0.27h0c-27.95,0-54.65,10.51-75.2,29.58C86.65,52.23,74.19,78.28,72.22,106.4
	c-0.41,5.92-0.35,11.85,0.19,17.76c-16.04,2.76-30.81,10.39-42.55,22.14c-14.98,14.99-23.23,34.93-23.23,56.13
	c0,21.22,8.26,41.17,23.26,56.17c15,15,34.95,23.27,56.17,23.27h22.47l13.44,2.93c2.05,7.49,5.1,14.76,9.14,21.6l-11.45,18.48
	l25.64,25.24l18.29-11.74c6.91,3.94,14.23,6.87,21.75,8.8l4.98,21.17l35.98-0.29l4.64-21.25c7.49-2.05,14.77-5.09,21.61-9.14
	l18.48,11.45l25.24-25.65l-11.74-18.29c3.93-6.91,6.87-14.23,8.8-21.75l7.91-1.86c22.7-1.67,43.81-11.29,60.07-27.55
	c17.95-17.95,27.84-41.81,27.84-67.2C389.13,161.44,379.25,137.57,361.3,119.62z M233.82,287.23c-14.95,15.2-39.4,15.39-54.59,0.43
	c-15.2-14.95-15.39-39.39-0.43-54.59c14.95-15.19,39.39-15.39,54.59-0.44C248.57,247.6,248.77,272.04,233.82,287.23z M347.27,239.99
	c-9.29,9.29-20.59,15.84-32.92,19.26l-0.13-16.79l-21.25-4.64c-2.05-7.49-5.09-14.76-9.14-21.6l11.45-18.48l-25.65-25.24
	l-18.29,11.75c-6.91-3.94-14.23-6.87-21.75-8.8l-4.98-21.17l-35.98,0.29l-4.64,21.25c-7.49,2.05-14.77,5.09-21.61,9.14L143.9,173.5
	l-25.24,25.64l11.74,18.3c-3.94,6.91-6.87,14.23-8.8,21.75l-21.17,4.98l0.14,17.85H86.07c-15.92,0-30.89-6.2-42.14-17.46
	c-11.26-11.26-17.45-26.22-17.45-42.14c0-15.9,6.19-30.86,17.43-42.11c11.24-11.25,26.18-17.46,42.09-17.48l9.89-0.01l-2.07-9.67
	c-1.78-8.35-2.39-16.88-1.8-25.36c1.62-23.08,11.83-44.45,28.78-60.19c16.86-15.66,38.78-24.28,61.7-24.28
	c2.14,0,4.3,0.08,6.44,0.23c10.99,0.77,21.59,3.46,31.5,8.01c9.58,4.39,18.26,10.39,25.81,17.82
	c15.22,14.99,24.71,34.89,26.72,56.03l0.81,8.49l8.42-1.34c3.95-0.63,7.96-0.95,11.9-0.95c20.09,0,38.97,7.82,53.18,22.03
	c14.2,14.2,22.03,33.09,22.03,53.18C369.3,206.9,361.47,225.79,347.27,239.99z"/>
<g>
	<path class="st1" d="M29.66,426.72h-13.5l-3.67,6.16H3.04l20.33-31.7h8.83l7.65,31.7h-8.92L29.66,426.72z M28.3,420.11l-2.13-10.28
		l-6.07,10.28H28.3z"/>
	<path class="st1" d="M48.73,399.28h8.61l-6.7,33.6h-8.6L48.73,399.28z"/>
	<path class="st1" d="M87.49,408.33l-3.99,20.01c-0.94,4.74-2.76,8.21-5.48,10.41c-2.72,2.2-6.29,3.31-10.73,3.31
		c-4.95,0-8.94-1.05-11.96-3.17l3.85-5.98c1,0.78,2.23,1.4,3.71,1.86c1.48,0.45,3.02,0.68,4.62,0.68c2.14,0,3.77-0.46,4.87-1.38
		c1.1-0.92,1.83-2.3,2.2-4.15l0.18-0.81c-1.84,1.66-4.12,2.49-6.84,2.49c-1.96,0-3.76-0.42-5.39-1.27c-1.63-0.84-2.93-2.06-3.9-3.64
		s-1.45-3.43-1.45-5.55c0-2.41,0.59-4.63,1.77-6.66c1.18-2.02,2.79-3.62,4.85-4.8c2.05-1.18,4.33-1.77,6.84-1.77
		c1.87,0,3.49,0.35,4.87,1.04c1.37,0.69,2.38,1.78,3.01,3.26l0.77-3.9H87.49z M74.65,423.1c1.07-1.09,1.61-2.51,1.61-4.26
		c0-1.21-0.41-2.18-1.22-2.92c-0.82-0.74-1.93-1.11-3.35-1.11c-1.72,0-3.13,0.55-4.21,1.65c-1.09,1.1-1.63,2.53-1.63,4.28
		c0,1.21,0.41,2.17,1.22,2.9c0.82,0.73,1.95,1.09,3.4,1.09C72.19,424.73,73.58,424.19,74.65,423.1z"/>
	<path class="st1" d="M94.96,431.91c-1.93-0.92-3.43-2.23-4.48-3.92c-1.06-1.69-1.58-3.65-1.58-5.89c0-2.69,0.65-5.1,1.95-7.25
		c1.3-2.14,3.09-3.83,5.39-5.07c2.29-1.24,4.88-1.86,7.74-1.86c2.6,0,4.86,0.46,6.79,1.38c1.93,0.92,3.43,2.22,4.48,3.9
		c1.06,1.68,1.58,3.63,1.58,5.86c0,2.69-0.65,5.11-1.95,7.27c-1.3,2.16-3.09,3.86-5.37,5.1c-2.28,1.24-4.87,1.86-7.77,1.86
		C99.16,433.29,96.89,432.83,94.96,431.91z M106.46,424.45c1.09-1.27,1.63-2.91,1.63-4.93c0-1.45-0.41-2.59-1.22-3.44
		c-0.81-0.84-1.95-1.27-3.4-1.27c-1.72,0-3.12,0.63-4.21,1.9c-1.09,1.27-1.63,2.93-1.63,4.98c0,1.45,0.41,2.59,1.22,3.42
		c0.81,0.83,1.95,1.25,3.4,1.25C103.97,426.36,105.38,425.72,106.46,424.45z"/>
	<path class="st1" d="M134.93,432.61c-1.95-0.45-3.46-1.02-4.55-1.72l3.13-6.02c1.11,0.7,2.45,1.25,3.98,1.65
		c1.54,0.41,3.05,0.61,4.53,0.61c2.63,0,3.94-0.59,3.94-1.77c0-0.48-0.31-0.84-0.93-1.07c-0.62-0.22-1.61-0.44-2.97-0.66
		c-1.81-0.33-3.3-0.69-4.46-1.07c-1.16-0.38-2.18-1.02-3.06-1.92c-0.88-0.91-1.31-2.17-1.31-3.8c0-2.84,1.21-5.03,3.64-6.59
		c2.43-1.56,5.58-2.33,9.44-2.33c1.75,0,3.44,0.18,5.07,0.52s3.05,0.82,4.26,1.43l-3.03,6.02c-2.05-1.24-4.48-1.86-7.29-1.86
		c-1.33,0-2.32,0.17-2.97,0.52c-0.65,0.35-0.97,0.79-0.97,1.33c0,0.48,0.31,0.84,0.93,1.07c0.62,0.22,1.64,0.48,3.06,0.75
		c1.75,0.3,3.21,0.65,4.37,1.04c1.16,0.39,2.17,1.04,3.03,1.95c0.86,0.9,1.29,2.14,1.29,3.71c0,2.84-1.22,5.03-3.67,6.57
		c-2.45,1.54-5.57,2.31-9.37,2.31C138.9,433.29,136.87,433.06,134.93,432.61z"/>
	<path class="st1" d="M187.03,408.33l-4.89,24.54h-8.15l0.5-2.31c-1.96,1.81-4.33,2.72-7.11,2.72c-1.81,0-3.51-0.45-5.09-1.34
		c-1.59-0.89-2.86-2.18-3.83-3.87c-0.97-1.69-1.45-3.68-1.45-5.98c0-2.65,0.6-5.06,1.79-7.22c1.19-2.16,2.81-3.86,4.85-5.1
		c2.04-1.24,4.26-1.86,6.68-1.86c3.56,0,6.07,1.12,7.52,3.35l0.59-2.94H187.03z M174.57,424.45c1.09-1.27,1.63-2.91,1.63-4.93
		c0-1.45-0.42-2.59-1.25-3.44c-0.83-0.84-1.97-1.27-3.42-1.27c-1.72,0-3.12,0.63-4.21,1.9c-1.09,1.27-1.63,2.93-1.63,4.98
		c0,1.45,0.41,2.59,1.25,3.42c0.83,0.83,1.97,1.25,3.42,1.25C172.08,426.36,173.49,425.72,174.57,424.45z"/>
	<path class="st1" d="M194.36,399.28h8.61l-6.7,33.6h-8.6L194.36,399.28z"/>
	<path class="st1" d="M206.72,408.33h8.56l-4.89,24.54h-8.56L206.72,408.33z M208.63,404.4c-0.9-0.81-1.36-1.83-1.36-3.03
		c0-1.42,0.5-2.59,1.52-3.51s2.35-1.38,4.01-1.38c1.51,0,2.72,0.39,3.62,1.16c0.9,0.77,1.36,1.76,1.36,2.97
		c0,1.48-0.51,2.69-1.54,3.62s-2.37,1.4-4.03,1.4C210.73,405.62,209.53,405.21,208.63,404.4z"/>
	<path class="st1" d="M222.8,431.91c-1.93-0.92-3.43-2.23-4.48-3.92c-1.06-1.69-1.58-3.65-1.58-5.89c0-2.69,0.65-5.1,1.95-7.25
		c1.3-2.14,3.09-3.83,5.39-5.07c2.29-1.24,4.88-1.86,7.74-1.86c2.6,0,4.86,0.46,6.79,1.38c1.93,0.92,3.43,2.22,4.48,3.9
		c1.06,1.68,1.58,3.63,1.58,5.86c0,2.69-0.65,5.11-1.95,7.27c-1.3,2.16-3.09,3.86-5.37,5.1s-4.87,1.86-7.77,1.86
		C227,433.29,224.73,432.83,222.8,431.91z M234.3,424.45c1.09-1.27,1.63-2.91,1.63-4.93c0-1.45-0.41-2.59-1.22-3.44
		c-0.81-0.84-1.95-1.27-3.4-1.27c-1.72,0-3.12,0.63-4.21,1.9c-1.09,1.27-1.63,2.93-1.63,4.98c0,1.45,0.41,2.59,1.22,3.42
		c0.81,0.83,1.95,1.25,3.4,1.25C231.81,426.36,233.21,425.72,234.3,424.45z M235.84,398.51h8.88l-9.28,6.88h-6.39L235.84,398.51z"/>
	<path class="st1" d="M301.78,410.1c1.57,1.45,2.35,3.5,2.35,6.16c0,1-0.11,2.01-0.32,3.04l-2.67,13.58h-8.61l2.54-12.68
		c0.12-0.57,0.18-1.15,0.18-1.72c0-1.08-0.27-1.9-0.79-2.44c-0.53-0.55-1.29-0.81-2.29-0.81c-2.75,0-4.48,1.77-5.21,5.3l-2.49,12.36
		h-8.61l2.58-12.68c0.12-0.51,0.18-1.07,0.18-1.67c0-1.09-0.27-1.91-0.79-2.47c-0.53-0.56-1.29-0.84-2.29-0.84
		c-2.78,0-4.53,1.79-5.25,5.39l-2.45,12.27h-8.6l4.89-24.54h8.15l-0.5,2.49c2.02-1.93,4.47-2.9,7.34-2.9c1.63,0,3.09,0.34,4.39,1.02
		c1.3,0.68,2.29,1.67,2.99,2.97c1.15-1.3,2.48-2.29,4.01-2.97c1.52-0.68,3.19-1.02,5-1.02C298.12,407.93,300.21,408.65,301.78,410.1
		z"/>
	<path class="st1" d="M337.78,408.33l-4.89,24.54h-8.15l0.5-2.31c-1.96,1.81-4.33,2.72-7.11,2.72c-1.81,0-3.51-0.45-5.09-1.34
		c-1.59-0.89-2.86-2.18-3.83-3.87c-0.97-1.69-1.45-3.68-1.45-5.98c0-2.65,0.6-5.06,1.79-7.22c1.19-2.16,2.81-3.86,4.85-5.1
		c2.04-1.24,4.26-1.86,6.68-1.86c3.56,0,6.07,1.12,7.52,3.35l0.59-2.94H337.78z M325.33,424.45c1.09-1.27,1.63-2.91,1.63-4.93
		c0-1.45-0.42-2.59-1.25-3.44c-0.83-0.84-1.97-1.27-3.42-1.27c-1.72,0-3.12,0.63-4.21,1.9c-1.09,1.27-1.63,2.93-1.63,4.98
		c0,1.45,0.41,2.59,1.25,3.42c0.83,0.83,1.97,1.25,3.42,1.25C322.83,426.36,324.24,425.72,325.33,424.45z"/>
	<path class="st1" d="M345.11,399.28h8.61l-6.7,33.6h-8.6L345.11,399.28z"/>
	<path class="st1" d="M353.33,431.95c-0.92-0.89-1.38-2.02-1.38-3.37c0-1.63,0.54-2.95,1.61-3.97c1.07-1.01,2.38-1.51,3.92-1.51
		c1.45,0,2.62,0.43,3.51,1.29c0.89,0.86,1.34,2,1.34,3.42c0,1.6-0.54,2.91-1.61,3.94c-1.07,1.02-2.36,1.54-3.87,1.54
		C355.42,433.29,354.25,432.84,353.33,431.95z"/>
	<path class="st1" d="M366.15,431.95c-0.92-0.89-1.38-2.02-1.38-3.37c0-1.63,0.54-2.95,1.61-3.97c1.07-1.01,2.38-1.51,3.92-1.51
		c1.45,0,2.62,0.43,3.51,1.29c0.89,0.86,1.34,2,1.34,3.42c0,1.6-0.54,2.91-1.61,3.94c-1.07,1.02-2.36,1.54-3.87,1.54
		C368.24,433.29,367.07,432.84,366.15,431.95z"/>
	<path class="st1" d="M378.96,431.95c-0.92-0.89-1.38-2.02-1.38-3.37c0-1.63,0.54-2.95,1.61-3.97c1.07-1.01,2.38-1.51,3.92-1.51
		c1.45,0,2.62,0.43,3.51,1.29c0.89,0.86,1.34,2,1.34,3.42c0,1.6-0.54,2.91-1.61,3.94c-1.07,1.02-2.36,1.54-3.87,1.54
		C381.05,433.29,379.88,432.84,378.96,431.95z"/>
</g>
</svg>
