<?xml version="1.0" encoding="utf-8"?>
<!-- Generator: Adobe Illustrator 24.0.2, SVG Export Plug-In . SVG Version: 6.00 Build 0)  -->
<svg version="1.1" id="Capa_1" xmlns="http://www.w3.org/2000/svg" xmlns:xlink="http://www.w3.org/1999/xlink" x="0px" y="0px"
	 viewBox="0 0 778 307" style="enable-background:new 0 0 778 307;" xml:space="preserve">
<style type="text/css">
	.st0{fill:#40CAA7;}
</style>
<g>
	<path class="st0" d="M653.51,5.07c0.07,1.32-0.31,2.65-1.31,3.65c-7.85,7.84-15.76,15.59-24.75,22.14c-1.5,1.09-2.98,1.15-4.2,0.59
		l-12.74,9.8l-2,29.02l-14.91,9.94l6.98,28.94l-31.86,30.86l11.05,12.06l-21.1,15.07l13.99,25.98l-26.37,21.04h140.62L763.5,5.73
		l0.2-0.67H653.51z"/>
	<polygon class="st0" points="165.86,191.87 151.85,165.85 172.75,150.92 161.8,138.98 193.95,107.84 186.93,78.78 202.02,68.72 
		204.02,39.74 217,29.75 217,6.84 218.98,4.07 80.61,4.07 4.02,212.51 3.82,213.17 139.44,213.17 139.53,212.88 	"/>
	<g>
		<path class="st0" d="M309.43,153.4H292.9l-4.27,22.75h-40.69l4.27-22.75h-64.5l5.32-28.43l66.64-81.51h44.43l-59.7,75.26h16.34
			l3.73-20.28h38.74l-3.73,20.28h16.53L309.43,153.4z"/>
		<path class="st0" d="M344.79,173.02c-7.23-4.1-12.83-10.04-16.79-17.82c-3.98-7.77-5.96-17.09-5.96-27.95
			c0-16.43,2.91-31.25,8.71-44.46c5.81-13.2,13.84-23.57,24.09-31.08c10.24-7.51,21.76-11.28,34.56-11.28
			c9.7,0,18.18,2.05,25.41,6.15c7.22,4.1,12.81,10.04,16.79,17.82c3.96,7.77,5.96,17.09,5.96,27.97c0,16.43-2.91,31.24-8.72,44.44
			c-5.8,13.2-13.83,23.57-24.08,31.08c-10.24,7.53-21.76,11.29-34.56,11.29C360.49,179.19,352.02,177.12,344.79,173.02z
			 M386.02,135.03c3.2-5.57,5.6-12.23,7.2-20.01c1.59-7.77,2.4-14.95,2.4-21.52c0-11.49-3.5-17.25-10.48-17.25
			c-4.51,0-8.36,2.79-11.55,8.35c-3.2,5.55-5.6,12.22-7.2,19.99c-1.59,7.77-2.4,14.95-2.4,21.52c0,11.51,3.5,17.25,10.48,17.25
			C378.98,143.36,382.82,140.58,386.02,135.03z"/>
		<path class="st0" d="M558.92,153.4h-16.53l-4.27,22.75h-40.69l4.27-22.75h-64.5l5.32-28.43l66.64-81.51h44.43l-59.7,75.26h16.34
			l3.73-20.28h38.74l-3.73,20.28h16.53L558.92,153.4z"/>
	</g>
	<g>
		<path class="st0" d="M291.28,256.93v15.41h-56.6v-70.5h55.29v15.41h-35.54v11.88h31.31v14.91h-31.31v12.89H291.28z"/>
		<path class="st0" d="M330.31,218.71c3.12-1.25,6.7-1.87,10.73-1.87v17.23c-1.75-0.2-3.19-0.3-4.33-0.3c-4.1,0-7.3,1.11-9.62,3.32
			c-2.31,2.22-3.47,5.61-3.47,10.17v25.08h-19.13v-54.58h18.23v6.55C324.65,221.82,327.19,219.95,330.31,218.71z"/>
		<path class="st0" d="M377.73,218.71c3.12-1.25,6.7-1.87,10.73-1.87v17.23c-1.75-0.2-3.19-0.3-4.33-0.3c-4.1,0-7.3,1.11-9.62,3.32
			c-2.31,2.22-3.47,5.61-3.47,10.17v25.08h-19.13v-54.58h18.23v6.55C372.08,221.82,374.62,219.95,377.73,218.71z"/>
		<path class="st0" d="M410.43,269.61c-4.7-2.42-8.38-5.77-11.03-10.07c-2.66-4.29-3.97-9.16-3.97-14.6c0-5.38,1.32-10.2,3.97-14.51
			c2.66-4.29,6.31-7.64,10.98-10.01c4.66-2.38,9.95-3.58,15.86-3.58s11.21,1.2,15.91,3.58c4.7,2.38,8.36,5.7,10.98,9.97
			c2.61,4.26,3.93,9.11,3.93,14.55c0,5.43-1.31,10.3-3.93,14.6c-2.62,4.3-6.28,7.65-10.98,10.07c-4.7,2.42-10,3.63-15.91,3.63
			C420.4,273.25,415.13,272.03,410.43,269.61z M434.5,254.56c2.15-2.31,3.22-5.52,3.22-9.61c0-4.03-1.07-7.19-3.22-9.47
			c-2.16-2.29-4.91-3.43-8.26-3.43c-3.36,0-6.11,1.14-8.26,3.43c-2.15,2.28-3.22,5.43-3.22,9.47c0,4.09,1.07,7.3,3.22,9.61
			c2.15,2.32,4.9,3.47,8.26,3.47C429.59,258.03,432.35,256.88,434.5,254.56z"/>
		<path class="st0" d="M494.77,218.71c3.12-1.25,6.7-1.87,10.73-1.87v17.23c-1.75-0.2-3.19-0.3-4.33-0.3c-4.1,0-7.3,1.11-9.62,3.32
			c-2.31,2.22-3.47,5.61-3.47,10.17v25.08h-19.13v-54.58h18.23v6.55C489.12,221.82,491.66,219.95,494.77,218.71z"/>
	</g>
</g>
</svg>
