<?xml version="1.0" encoding="utf-8"?>
<!-- Generator: Adobe Illustrator 24.0.2, SVG Export Plug-In . SVG Version: 6.00 Build 0)  -->
<svg version="1.1" id="Capa_1" xmlns="http://www.w3.org/2000/svg" xmlns:xlink="http://www.w3.org/1999/xlink" x="0px" y="0px"
	 viewBox="0 0 52 52" style="enable-background:new 0 0 52 52;" xml:space="preserve">
<style type="text/css">
	.st0{fill:#40CAA7;}
	.st1{fill:#FFFFFF;}
	.st2{fill:none;}
</style>
<path class="st0" d="M26,51L26,51C12.19,51,1,39.81,1,26v0C1,12.19,12.19,1,26,1h0c13.81,0,25,11.19,25,25v0
	C51,39.81,39.81,51,26,51z"/>
<path class="st1" d="M35.72,32.49l1.16-7.56h-7.25v-4.9c0-2.07,1.01-4.08,4.26-4.08h3.3V9.51c0,0-2.99-0.51-5.85-0.51
	c-5.97,0-9.87,3.62-9.87,10.17v5.76h-6.64v7.56h6.64v18.27c1.33,0.21,2.7,0.32,4.08,0.32c1.39,0,2.75-0.11,4.09-0.32V32.49H35.72z"
	/>
</svg>
