<?xml version="1.0" encoding="utf-8"?>
<!-- Generator: Adobe Illustrator 24.0.2, SVG Export Plug-In . SVG Version: 6.00 Build 0)  -->
<svg version="1.1" id="Capa_1" xmlns="http://www.w3.org/2000/svg" xmlns:xlink="http://www.w3.org/1999/xlink" x="0px" y="0px"
	 viewBox="0 0 52 52" style="enable-background:new 0 0 52 52;" xml:space="preserve">
<style type="text/css">
	.st0{fill:#40CAA7;}
	.st1{fill:#FFFFFF;}
	.st2{fill:none;}
	.st3{fill-rule:evenodd;clip-rule:evenodd;fill:#EA5B5B;}
	.st4{fill-rule:evenodd;clip-rule:evenodd;fill:#FFFFFF;}
</style>
<path class="st0" d="M26,51L26,51C12.19,51,1,39.81,1,26v0C1,12.19,12.19,1,26,1h0c13.81,0,25,11.19,25,25v0
	C51,39.81,39.81,51,26,51z"/>
<g>
	<g>
		<path class="st1" d="M34.21,16.04c-1,0-1.82,0.81-1.82,1.82c0,1,0.81,1.82,1.82,1.82c1,0,1.82-0.81,1.82-1.82
			C36.02,16.85,35.21,16.04,34.21,16.04z"/>
		<path class="st1" d="M26.13,18.37c-4.21,0-7.63,3.42-7.63,7.63c0,4.21,3.42,7.63,7.63,7.63c4.21,0,7.63-3.42,7.63-7.63
			C33.76,21.79,30.34,18.37,26.13,18.37z M26.13,30.89c-2.7,0-4.89-2.19-4.89-4.89c0-2.7,2.19-4.89,4.89-4.89s4.89,2.19,4.89,4.89
			C31.02,28.7,28.82,30.89,26.13,30.89z"/>
		<path class="st1" d="M32.19,41.5H19.81c-5.13,0-9.31-4.18-9.31-9.31V19.81c0-5.13,4.18-9.31,9.31-9.31h12.38
			c5.13,0,9.31,4.18,9.31,9.31v12.38C41.5,37.32,37.32,41.5,32.19,41.5z M19.81,13.42c-3.53,0-6.4,2.87-6.4,6.4v12.38
			c0,3.53,2.87,6.4,6.4,6.4h12.38c3.53,0,6.4-2.87,6.4-6.4V19.81c0-3.53-2.87-6.4-6.4-6.4H19.81z"/>
	</g>
</g>
<path class="st3" d="M45.2,13.56L45.2,13.56c-3.75,0-6.78-3.04-6.78-6.78v0c0-3.75,3.04-6.78,6.78-6.78h0
	c3.75,0,6.78,3.04,6.78,6.78v0C51.98,10.52,48.95,13.56,45.2,13.56z"/>
<path class="st4" d="M48.85,5.01l-0.94-0.94V4.05l0,0l-0.94-0.94c-0.05-0.05-0.12-0.07-0.19-0.07c-0.09,0-0.16,0.02-0.21,0.07
	l-4.55,4.56C42,7.71,41.96,7.76,41.94,7.82l-0.49,2.38c-0.02,0.09,0.02,0.17,0.07,0.24c0.05,0.05,0.12,0.07,0.21,0.07
	c0.02,0,0.03,0,0.05,0l2.36-0.49c0.05-0.02,0.1-0.03,0.14-0.07l4.56-4.56C48.96,5.28,48.96,5.11,48.85,5.01L48.85,5.01z"/>
</svg>
