<?xml version="1.0" encoding="utf-8"?>
<!-- Generator: Adobe Illustrator 24.0.2, SVG Export Plug-In . SVG Version: 6.00 Build 0)  -->
<svg version="1.1" id="Capa_1" xmlns="http://www.w3.org/2000/svg" xmlns:xlink="http://www.w3.org/1999/xlink" x="0px" y="0px"
	 viewBox="0 0 268 158.14" style="enable-background:new 0 0 268 158.14;" xml:space="preserve">
<style type="text/css">
	.st0{fill:#40CAA7;}
	.st1{fill:#FFFFFF;}
</style>
<polyline class="st0" points="0,158.35 209.73,158.35 267.6,0.85 267.75,0.35 58.02,0.35 0.15,157.84 "/>
<path class="st1" d="M201.36,56.51h-78.02l-4.7,12.92h59.4c4.47,0,8.02,1.85,10.65,5.54c2.63,3.69,3.16,7.66,1.59,11.91
	l-11.07,30.54c-1.9,5.26-5.06,9.4-9.48,12.42c-4.42,3.02-9.43,4.53-15.02,4.53H56.06l9.4-26.01h78.02l4.7-12.92H88.78
	c-4.47,0-8.03-1.85-10.65-5.54c-2.63-3.69-3.16-7.66-1.59-11.91L87.6,47.62c1.9-5.26,5.06-9.42,9.48-12.5
	c4.42-3.07,9.42-4.61,15.02-4.61h98.66L201.36,56.51z"/>
</svg>
