<?xml version="1.0" encoding="utf-8"?>
<!-- Generator: Adobe Illustrator 24.0.2, SVG Export Plug-In . SVG Version: 6.00 Build 0)  -->
<svg version="1.1" id="Capa_1" xmlns="http://www.w3.org/2000/svg" xmlns:xlink="http://www.w3.org/1999/xlink" x="0px" y="0px"
	 viewBox="0 0 759.77 213" style="enable-background:new 0 0 759.77 213;" xml:space="preserve">
<style type="text/css">
	.st0{fill:#40CAA7;}
	.st1{fill:#FFFFFF;}
</style>
<g>
	<g>
		<polygon class="st0" points="759.58,0.5 80.79,0.5 77.87,0.5 77.96,0.5 0.84,213.5 1.21,213.5 424.05,213.5 424.28,212.91 
			451.69,138.6 451.72,138.6 709.26,138.6 709.5,138.6 709.8,137.63 759.71,0.5 		"/>
	</g>
	<g>
		<g>
			<path class="st1" d="M671.09,24.81l-23.73,65.16h51.68l-7.87,21.63H606.9l31.6-86.79H671.09z"/>
		</g>
		<g>
			<path class="st1" d="M185.4,46.44H120.1l-3.93,10.81h49.72c3.74,0,6.72,1.55,8.92,4.63c2.2,3.09,2.64,6.42,1.33,9.97l-9.27,25.56
				c-1.59,4.4-4.24,7.86-7.94,10.39c-3.7,2.53-7.89,3.79-12.57,3.79H63.78l7.86-21.77h65.3l3.93-10.81H91.17
				c-3.75,0-6.72-1.55-8.92-4.63c-2.2-3.09-2.65-6.41-1.33-9.97L90.18,39c1.59-4.4,4.23-7.89,7.94-10.46
				c3.7-2.57,7.89-3.86,12.57-3.86h82.58L185.4,46.44z"/>
		</g>
		<g>
			<path class="st1" d="M304.12,46.44h-65.31l-3.93,11.23h54.35l-7.16,18.12h-54.35l-4.63,14.04h65.16l-7.86,21.77H182.5l31.6-86.93
				h97.89L304.12,46.44z"/>
		</g>
		<g>
			<path class="st1" d="M402.47,24.67l-26.4,72.61c-1.59,4.4-4.24,7.89-7.93,10.46c-3.7,2.58-7.84,3.86-12.43,3.86h-65.73
				l7.72-21.77h48.45l23.03-65.16H402.47z"/>
		</g>
		<g>
			<path class="st1" d="M383.51,111.6L409.92,39c1.59-4.4,4.24-7.89,7.94-10.46c3.7-2.57,7.89-3.86,12.57-3.86H513l-31.6,86.93
				h-32.72l8-21.77H424.1l-8,21.77H383.51z M449.19,46.44l-7.87,21.77h32.58l7.87-21.77H449.19z"/>
		</g>
		<g>
			<path class="st1" d="M494.04,111.6L520.44,39c1.59-4.4,4.24-7.89,7.94-10.46c3.7-2.57,7.89-3.86,12.57-3.86h82.58l-31.6,86.93
				H559.2l8-21.77h-32.58l-8,21.77H494.04z M550.36,46.44l-7.87,21.77h32.58l7.87-21.77H550.36z"/>
		</g>
	</g>
	<g>
		<g>
			<path class="st1" d="M60.9,143.37h12.56l-10.79,53.92H50.12L60.9,143.37z"/>
		</g>
		<g>
			<path class="st1" d="M137.97,143.37l-10.79,53.92h-10.24l-20.11-33.74l-6.78,33.74H77.72l10.78-53.92h10.32l20.11,33.82
				l6.7-33.82H137.97z"/>
		</g>
		<g>
			<path class="st1" d="M160.06,153.38l-2.85,14.25h25.04l-2.08,10.02h-24.88l-3.93,19.64H138.8l10.78-53.92h40.75l-2.08,10.01
				H160.06z"/>
		</g>
		<g>
			<path class="st1" d="M198.81,143.37h12.55l-10.78,53.92h-12.56L198.81,143.37z"/>
		</g>
		<g>
			<path class="st1" d="M273.53,143.37l-10.78,53.92H252.5l-20.1-33.74l-6.78,33.74h-12.32l10.78-53.92h10.32l20.1,33.82l6.7-33.82
				H273.53z"/>
		</g>
		<g>
			<path class="st1" d="M286.32,143.37h12.55l-10.78,53.92h-12.56L286.32,143.37z"/>
		</g>
		<g>
			<path class="st1" d="M321.76,153.54H304.5l2.08-10.17h46.99l-2.08,10.17h-17.18l-8.78,43.75h-12.48L321.76,153.54z"/>
		</g>
		<g>
			<path class="st1" d="M382.99,178.57l-3.7,18.72h-12.48l3.77-19.26l-13.87-34.67h12.48l9.63,24.03l19.34-24.03h12.86
				L382.99,178.57z"/>
		</g>
	</g>
</g>
</svg>
