<?xml version="1.0" encoding="utf-8"?>
<!-- Generator: Adobe Illustrator 24.0.2, SVG Export Plug-In . SVG Version: 6.00 Build 0)  -->
<svg version="1.1" id="Capa_1" xmlns="http://www.w3.org/2000/svg" xmlns:xlink="http://www.w3.org/1999/xlink" x="0px" y="0px"
	 viewBox="0 0 500 500" style="enable-background:new 0 0 500 500;" xml:space="preserve">
<style type="text/css">
	.st0{fill:#40CAA7;}
	.st1{fill:#CE5BEA;}
	.st2{fill:#FFFFFF;}
</style>
<g>
	<path class="st0" d="M248.98,250.78V0.48c-137.61,0.54-249,112.25-249,249.99v0c0,138.07,111.93,250,250,250h0
		c53.27,0,102.64-16.67,143.2-45.07c0-0.01-0.14-0.2-0.41-0.58C384.36,442.92,248.98,250.78,248.98,250.78z"/>
	<path class="st1" d="M250.98,0.48v249.67c0,0,143.63,203.97,143.75,204.18c63.7-45.31,105.25-119.73,105.25-203.86v0
		C499.98,112.73,388.59,1.02,250.98,0.48z"/>
	<g>
		<path class="st2" d="M111.8,256.04c0.78,0.39,1.4,0.95,1.87,1.66c0.46,0.72,0.69,1.54,0.69,2.46c0,1.01-0.26,1.9-0.78,2.68
			c-0.52,0.77-1.22,1.37-2.11,1.79c-0.89,0.42-1.88,0.63-2.98,0.63c-2.13,0-3.82-0.63-5.05-1.9c-1.24-1.27-1.86-3.09-1.86-5.46
			c0-1.71,0.33-3.17,0.99-4.4c0.66-1.23,1.59-2.16,2.78-2.8c1.19-0.64,2.58-0.96,4.16-0.96c0.85,0,1.66,0.09,2.43,0.28
			c0.77,0.18,1.42,0.46,1.96,0.81l-1.54,3.03c-0.73-0.51-1.64-0.77-2.75-0.77c-1.08,0-1.96,0.3-2.62,0.9
			c-0.67,0.6-1.05,1.46-1.15,2.58c0.85-0.74,1.98-1.11,3.37-1.11C110.15,255.46,111.01,255.65,111.8,256.04z M109.7,261.75
			c0.38-0.34,0.56-0.8,0.56-1.39c0-0.57-0.19-1.02-0.56-1.37c-0.38-0.34-0.87-0.51-1.48-0.51c-0.61,0-1.11,0.17-1.49,0.52
			c-0.38,0.35-0.58,0.81-0.58,1.38c0,0.55,0.19,1.01,0.56,1.35c0.38,0.35,0.89,0.52,1.52,0.52
			C108.83,262.26,109.32,262.09,109.7,261.75z"/>
		<path class="st2" d="M119.24,264.35c-1-0.61-1.77-1.5-2.34-2.68c-0.56-1.17-0.84-2.56-0.84-4.17c0-1.61,0.28-3,0.84-4.17
			c0.56-1.17,1.34-2.07,2.34-2.68c1-0.61,2.13-0.92,3.41-0.92c1.27,0,2.4,0.31,3.39,0.92c1,0.61,1.77,1.5,2.34,2.68
			c0.56,1.17,0.84,2.56,0.84,4.17c0,1.61-0.28,3-0.84,4.17c-0.56,1.17-1.34,2.07-2.34,2.68c-1,0.61-2.13,0.92-3.39,0.92
			C121.37,265.27,120.23,264.96,119.24,264.35z M124.35,260.78c0.42-0.69,0.63-1.78,0.63-3.27c0-1.49-0.21-2.58-0.63-3.27
			s-0.98-1.03-1.69-1.03c-0.73,0-1.3,0.34-1.72,1.03s-0.63,1.78-0.63,3.27c0,1.49,0.21,2.58,0.63,3.27
			c0.42,0.69,0.99,1.03,1.72,1.03C123.36,261.81,123.93,261.47,124.35,260.78z"/>
		<path class="st2" d="M132.12,257.02c-0.71-0.74-1.07-1.75-1.07-3.03c0-0.84,0.16-1.57,0.49-2.2s0.78-1.11,1.35-1.44
			c0.58-0.33,1.23-0.5,1.97-0.5c1.14,0,2.06,0.37,2.77,1.12c0.71,0.75,1.07,1.75,1.07,3.02c0,1.28-0.35,2.29-1.07,3.03
			c-0.71,0.74-1.64,1.11-2.77,1.11C133.75,258.12,132.83,257.75,132.12,257.02z M143.7,250.04h3.07l-10.19,14.93h-3.07L143.7,250.04
			z M135.79,255.59c0.23-0.34,0.34-0.87,0.34-1.6c0-0.72-0.11-1.26-0.34-1.6c-0.23-0.34-0.53-0.51-0.92-0.51
			c-0.37,0-0.67,0.17-0.91,0.52c-0.23,0.35-0.35,0.88-0.35,1.59c0,0.71,0.12,1.24,0.35,1.59c0.24,0.35,0.54,0.52,0.91,0.52
			C135.26,256.1,135.56,255.93,135.79,255.59z M142.65,264.05c-0.7-0.74-1.06-1.75-1.06-3.03c0-1.27,0.36-2.27,1.07-3.02
			c0.71-0.75,1.63-1.12,2.75-1.12c1.14,0,2.06,0.37,2.77,1.12c0.71,0.75,1.07,1.75,1.07,3.02c0,1.28-0.36,2.29-1.07,3.03
			c-0.71,0.74-1.64,1.11-2.77,1.11S143.35,264.79,142.65,264.05z M146.33,262.62c0.23-0.34,0.34-0.87,0.34-1.6
			c0-0.72-0.11-1.26-0.34-1.6s-0.53-0.51-0.92-0.51c-0.38,0-0.69,0.17-0.92,0.51c-0.23,0.34-0.34,0.87-0.34,1.6
			c0,0.73,0.11,1.26,0.34,1.6c0.23,0.34,0.53,0.51,0.92,0.51C145.79,263.14,146.1,262.97,146.33,262.62z"/>
	</g>
	<g>
		<path class="st2" d="M365.32,262.43h-2.22v2.86h-4.12v-2.86h-7.89v-2.75l6.7-9.32h4.37l-6.08,8.72h3.03v-2.54h3.99v2.54h2.22
			V262.43z"/>
		<path class="st2" d="M369.99,264.67c-1-0.61-1.77-1.5-2.34-2.68c-0.56-1.17-0.84-2.56-0.84-4.17c0-1.61,0.28-3,0.84-4.17
			c0.56-1.17,1.34-2.07,2.34-2.68c1-0.61,2.13-0.92,3.41-0.92c1.27,0,2.4,0.31,3.39,0.92c1,0.61,1.77,1.5,2.34,2.68
			c0.56,1.17,0.84,2.56,0.84,4.17c0,1.61-0.28,3-0.84,4.17c-0.56,1.17-1.34,2.07-2.34,2.68c-1,0.61-2.13,0.92-3.39,0.92
			C372.12,265.59,370.99,265.28,369.99,264.67z M375.1,261.1c0.42-0.69,0.63-1.78,0.63-3.27c0-1.49-0.21-2.58-0.63-3.27
			c-0.42-0.69-0.98-1.03-1.69-1.03c-0.73,0-1.3,0.34-1.72,1.03c-0.42,0.69-0.63,1.78-0.63,3.27c0,1.49,0.21,2.58,0.63,3.27
			c0.42,0.69,0.99,1.03,1.72,1.03C374.11,262.13,374.68,261.79,375.1,261.1z"/>
		<path class="st2" d="M382.87,257.33c-0.71-0.74-1.07-1.75-1.07-3.03c0-0.84,0.16-1.57,0.49-2.2c0.33-0.63,0.78-1.11,1.35-1.44
			c0.58-0.33,1.23-0.5,1.97-0.5c1.14,0,2.06,0.37,2.77,1.12c0.71,0.75,1.07,1.75,1.07,3.02c0,1.28-0.35,2.29-1.07,3.03
			c-0.71,0.74-1.64,1.11-2.77,1.11C384.5,258.44,383.58,258.07,382.87,257.33z M394.45,250.36h3.07l-10.19,14.93h-3.07
			L394.45,250.36z M386.54,255.9c0.23-0.34,0.34-0.87,0.34-1.6c0-0.72-0.11-1.26-0.34-1.6c-0.23-0.34-0.53-0.51-0.92-0.51
			c-0.37,0-0.67,0.17-0.91,0.52c-0.23,0.35-0.35,0.88-0.35,1.59c0,0.71,0.12,1.24,0.35,1.59c0.24,0.35,0.54,0.52,0.91,0.52
			C386.01,256.41,386.31,256.24,386.54,255.9z M393.4,264.37c-0.7-0.74-1.06-1.75-1.06-3.03c0-1.27,0.36-2.27,1.07-3.02
			s1.63-1.12,2.75-1.12c1.14,0,2.06,0.37,2.77,1.12c0.71,0.75,1.07,1.75,1.07,3.02c0,1.28-0.36,2.29-1.07,3.03
			c-0.71,0.74-1.64,1.11-2.77,1.11C395.02,265.48,394.1,265.11,393.4,264.37z M397.08,262.94c0.23-0.34,0.34-0.87,0.34-1.6
			c0-0.72-0.11-1.26-0.34-1.6c-0.23-0.34-0.53-0.51-0.92-0.51c-0.38,0-0.69,0.17-0.92,0.51c-0.23,0.34-0.34,0.87-0.34,1.6
			c0,0.73,0.11,1.26,0.34,1.6c0.23,0.34,0.53,0.51,0.92,0.51C396.55,263.45,396.85,263.28,397.08,262.94z"/>
	</g>
	<g>
		<path class="st2" d="M26.43,241.19c-1.39-0.4-2.51-0.91-3.35-1.54l1.81-3.43c0.88,0.64,1.87,1.13,2.97,1.48
			c1.1,0.35,2.22,0.52,3.38,0.52c1.23,0,2.2-0.2,2.91-0.6c0.71-0.4,1.07-0.95,1.07-1.65c0-0.57-0.28-1-0.85-1.3
			c-0.57-0.3-1.47-0.63-2.72-0.97c-1.24-0.37-2.26-0.72-3.05-1.06c-0.79-0.34-1.47-0.85-2.04-1.52c-0.58-0.68-0.86-1.57-0.86-2.69
			c0-1.3,0.36-2.44,1.08-3.43c0.72-0.99,1.75-1.75,3.07-2.28c1.33-0.53,2.87-0.8,4.62-0.8c1.3,0,2.53,0.14,3.68,0.43
			c1.15,0.28,2.14,0.69,2.96,1.22l-1.67,3.4c-0.71-0.49-1.52-0.86-2.42-1.11c-0.9-0.25-1.83-0.37-2.8-0.37
			c-1.26,0-2.26,0.22-2.99,0.66c-0.73,0.44-1.1,1.01-1.1,1.7c0,0.42,0.16,0.77,0.47,1.06c0.31,0.28,0.7,0.51,1.18,0.69
			s1.14,0.38,2,0.62c1.23,0.33,2.23,0.66,3.02,1c0.79,0.34,1.46,0.83,2.02,1.48c0.56,0.65,0.84,1.51,0.84,2.57
			c0,1.32-0.37,2.47-1.1,3.44c-0.73,0.98-1.77,1.74-3.1,2.28c-1.34,0.54-2.89,0.81-4.67,0.81C29.27,241.8,27.82,241.59,26.43,241.19
			z"/>
		<path class="st2" d="M57.11,235.24H45.8c0.15,2.01,1.42,3.02,3.82,3.02c0.75,0,1.47-0.12,2.15-0.36c0.69-0.24,1.29-0.58,1.8-1.02
			l1.78,2.83c-0.82,0.66-1.77,1.15-2.83,1.48c-1.06,0.33-2.18,0.49-3.35,0.49c-1.52,0-2.85-0.27-3.99-0.81s-2.02-1.31-2.63-2.32
			c-0.61-1.01-0.92-2.17-0.92-3.49c0-1.63,0.37-3.1,1.11-4.41c0.74-1.31,1.77-2.33,3.09-3.07c1.32-0.74,2.82-1.11,4.5-1.11
			c1.43,0,2.67,0.26,3.72,0.8c1.05,0.53,1.87,1.29,2.44,2.28c0.58,0.99,0.86,2.13,0.86,3.43C57.36,233.66,57.28,234.41,57.11,235.24
			z M47.59,230.5c-0.7,0.54-1.19,1.29-1.48,2.24h7.33c0-0.95-0.3-1.7-0.89-2.24s-1.39-0.81-2.4-0.81
			C49.13,229.69,48.28,229.96,47.59,230.5z"/>
		<path class="st2" d="M53.1,246.19l1.7-3.1c0.49,0.35,1.09,0.52,1.78,0.52c0.59,0,1.05-0.17,1.39-0.52
			c0.34-0.35,0.58-0.9,0.73-1.65l2.96-14.74h4.28l-2.94,14.63c-0.75,3.79-2.87,5.68-6.37,5.68
			C55.22,247.01,54.04,246.74,53.1,246.19z M62.72,224c-0.47-0.43-0.7-0.96-0.7-1.58c0-0.73,0.26-1.34,0.78-1.82
			c0.52-0.48,1.2-0.73,2.04-0.73c0.75,0,1.36,0.21,1.82,0.62c0.47,0.41,0.7,0.92,0.7,1.52c0,0.79-0.27,1.42-0.8,1.91
			c-0.53,0.48-1.22,0.73-2.06,0.73C63.79,224.64,63.19,224.43,62.72,224z"/>
		<path class="st2" d="M84.89,226.7l-2.94,14.77h-4.06l0.27-1.46c-1.23,1.12-2.74,1.68-4.53,1.68c-1.15,0-2.21-0.27-3.18-0.8
			c-0.97-0.53-1.74-1.29-2.32-2.29c-0.58-1-0.86-2.17-0.86-3.53c0-1.63,0.36-3.1,1.08-4.41c0.72-1.31,1.71-2.33,2.95-3.07
			c1.24-0.74,2.62-1.11,4.12-1.11c2.27,0,3.87,0.74,4.8,2.22l0.38-2H84.89z M77.2,237.53c0.66-0.41,1.17-0.98,1.54-1.72
			c0.37-0.73,0.55-1.57,0.55-2.53c0-1.01-0.3-1.8-0.89-2.39c-0.6-0.59-1.42-0.88-2.48-0.88c-0.84,0-1.59,0.21-2.25,0.62
			c-0.66,0.41-1.17,0.98-1.54,1.72c-0.37,0.73-0.55,1.57-0.55,2.53c0,1.01,0.3,1.8,0.89,2.39c0.6,0.59,1.42,0.88,2.48,0.88
			C75.79,238.15,76.54,237.94,77.2,237.53z"/>
		<path class="st2" d="M103.83,226.7l-2.94,14.77h-4.06l0.27-1.46c-1.23,1.12-2.74,1.68-4.53,1.68c-1.15,0-2.21-0.27-3.18-0.8
			c-0.97-0.53-1.74-1.29-2.32-2.29c-0.58-1-0.86-2.17-0.86-3.53c0-1.63,0.36-3.1,1.08-4.41c0.72-1.31,1.71-2.33,2.95-3.07
			c1.24-0.74,2.62-1.11,4.12-1.11c2.27,0,3.87,0.74,4.8,2.22l0.38-2H103.83z M96.14,237.53c0.66-0.41,1.17-0.98,1.54-1.72
			c0.37-0.73,0.55-1.57,0.55-2.53c0-1.01-0.3-1.8-0.89-2.39c-0.6-0.59-1.42-0.88-2.48-0.88c-0.84,0-1.59,0.21-2.25,0.62
			c-0.66,0.41-1.17,0.98-1.54,1.72s-0.55,1.57-0.55,2.53c0,1.01,0.3,1.8,0.89,2.39c0.6,0.59,1.42,0.88,2.48,0.88
			C94.73,238.15,95.48,237.94,96.14,237.53z"/>
		<path class="st2" d="M108.9,221.1h4.28l-4.06,20.37h-4.28L108.9,221.1z"/>
		<path class="st2" d="M124.99,222.25h4.47l-3.84,19.21h-4.47L124.99,222.25z"/>
		<path class="st2" d="M145.32,227.79c0.97,0.87,1.46,2.11,1.46,3.72c0,0.6-0.06,1.2-0.19,1.78l-1.65,8.18h-4.28l1.59-7.9
			c0.07-0.31,0.11-0.65,0.11-1.02c0-0.77-0.21-1.35-0.63-1.76c-0.42-0.4-1.05-0.6-1.89-0.6c-1.1,0-2.01,0.32-2.73,0.95
			c-0.72,0.63-1.21,1.58-1.47,2.84l-1.48,7.49h-4.28l2.94-14.77h4.06l-0.33,1.59c1.32-1.21,2.94-1.81,4.86-1.81
			C143.05,226.48,144.36,226.92,145.32,227.79z"/>
		<path class="st2" d="M157.31,224.79c-0.38,0.36-0.64,0.92-0.78,1.69l-0.11,0.55h3.76l-0.66,3.29h-3.65l-2.22,11.14h-4.28
			l2.22-11.14h-2.31l0.66-3.29h2.31l0.17-0.85c0.35-1.65,1.07-2.94,2.15-3.88s2.51-1.41,4.27-1.41c0.66,0,1.28,0.07,1.88,0.22
			c0.59,0.15,1.1,0.35,1.52,0.6l-1.67,3.07c-0.46-0.35-1.03-0.52-1.7-0.52C158.2,224.26,157.68,224.44,157.31,224.79z M164.59,226.7
			h4.25l-2.94,14.77h-4.25L164.59,226.7z M165.65,224c-0.47-0.43-0.7-0.96-0.7-1.58c0-0.73,0.26-1.34,0.78-1.82
			c0.52-0.48,1.2-0.73,2.04-0.73c0.75,0,1.36,0.21,1.83,0.62c0.47,0.41,0.7,0.92,0.7,1.52c0,0.79-0.26,1.42-0.8,1.91
			c-0.53,0.48-1.22,0.73-2.06,0.73C166.72,224.64,166.12,224.43,165.65,224z"/>
		<path class="st2" d="M185.34,227.79c0.97,0.87,1.46,2.11,1.46,3.72c0,0.6-0.06,1.2-0.19,1.78l-1.65,8.18h-4.28l1.59-7.9
			c0.07-0.31,0.11-0.65,0.11-1.02c0-0.77-0.21-1.35-0.63-1.76c-0.42-0.4-1.05-0.6-1.89-0.6c-1.1,0-2.01,0.32-2.73,0.95
			c-0.72,0.63-1.21,1.58-1.47,2.84l-1.48,7.49h-4.28l2.94-14.77h4.06l-0.33,1.59c1.32-1.21,2.94-1.81,4.86-1.81
			C183.06,226.48,184.37,226.92,185.34,227.79z"/>
		<path class="st2" d="M191.79,226.7h4.25l-2.94,14.77h-4.25L191.79,226.7z M192.85,224c-0.47-0.43-0.7-0.96-0.7-1.58
			c0-0.73,0.26-1.34,0.78-1.82c0.52-0.48,1.2-0.73,2.04-0.73c0.75,0,1.36,0.21,1.83,0.62c0.47,0.41,0.7,0.92,0.7,1.52
			c0,0.79-0.26,1.42-0.8,1.91c-0.53,0.48-1.22,0.73-2.06,0.73C193.91,224.64,193.32,224.43,192.85,224z"/>
		<path class="st2" d="M202.91,236.25c-0.04,0.15-0.05,0.35-0.05,0.6c0,0.95,0.52,1.43,1.56,1.43c0.57,0,1.14-0.17,1.73-0.52
			l0.63,3.05c-0.95,0.59-2.18,0.88-3.68,0.88c-1.39,0-2.51-0.37-3.35-1.1c-0.84-0.73-1.26-1.74-1.26-3.02c0-0.37,0.05-0.8,0.14-1.29
			l1.18-5.96h-2.28l0.66-3.29h2.28l0.71-3.6h4.28l-0.71,3.6h3.68l-0.66,3.29h-3.68L202.91,236.25z"/>
		<path class="st2" d="M226.35,226.7l-9.83,15.76c-1.06,1.72-2.09,2.91-3.09,3.57c-1,0.66-2.22,0.99-3.66,0.99
			c-0.77,0-1.52-0.12-2.26-0.36c-0.74-0.24-1.32-0.55-1.74-0.93l1.98-3.07c0.66,0.6,1.45,0.91,2.36,0.91c0.55,0,1.03-0.14,1.43-0.41
			c0.4-0.27,0.81-0.74,1.24-1.4l0.14-0.25l-3.4-14.79h4.28l2.2,10.05l6.15-10.05H226.35z"/>
	</g>
	<g>
		<path class="st2" d="M332.14,232.34c0.45,0.65,0.67,1.44,0.67,2.37c0,1.99-0.79,3.5-2.36,4.53c-1.57,1.03-3.67,1.54-6.29,1.54
			h-10.07l3.84-19.21h9.28c2.07,0,3.66,0.38,4.78,1.14s1.67,1.84,1.67,3.25c0,1.17-0.31,2.17-0.92,3.01
			c-0.61,0.83-1.45,1.47-2.51,1.91C331.05,231.2,331.69,231.69,332.14,232.34z M327.35,236.72c0.69-0.48,1.04-1.16,1.04-2.06
			c0-1.32-0.96-1.98-2.88-1.98h-5.38l-0.93,4.75h5.24C325.68,237.43,326.65,237.19,327.35,236.72z M321.67,224.92l-0.91,4.53h4.53
			c1.17,0,2.08-0.23,2.73-0.7c0.65-0.47,0.97-1.14,0.97-2.02c0-1.21-0.94-1.81-2.83-1.81H321.67z"/>
		<path class="st2" d="M350.6,234.55h-11.31c0.15,2.01,1.42,3.02,3.82,3.02c0.75,0,1.47-0.12,2.15-0.36
			c0.69-0.24,1.29-0.58,1.8-1.02l1.78,2.83c-0.82,0.66-1.77,1.15-2.83,1.48c-1.06,0.33-2.18,0.49-3.35,0.49
			c-1.52,0-2.85-0.27-3.99-0.81s-2.02-1.31-2.63-2.32c-0.61-1.01-0.92-2.17-0.92-3.49c0-1.63,0.37-3.1,1.11-4.41
			c0.74-1.31,1.77-2.33,3.09-3.07c1.32-0.74,2.82-1.11,4.5-1.11c1.43,0,2.67,0.26,3.72,0.8c1.05,0.53,1.87,1.29,2.44,2.28
			c0.58,0.99,0.86,2.13,0.86,3.43C350.84,232.98,350.76,233.73,350.6,234.55z M341.07,229.81c-0.7,0.54-1.19,1.29-1.48,2.24h7.33
			c0-0.95-0.3-1.7-0.89-2.24c-0.59-0.54-1.39-0.81-2.4-0.81C342.62,229.01,341.77,229.28,341.07,229.81z"/>
		<path class="st2" d="M355.87,240.18c-1.13-0.55-2.01-1.32-2.62-2.32s-0.92-2.16-0.92-3.47c0-1.63,0.38-3.09,1.15-4.39
			c0.77-1.3,1.84-2.32,3.21-3.07c1.37-0.75,2.92-1.12,4.64-1.12c1.57,0,2.93,0.32,4.08,0.97c1.14,0.65,2,1.57,2.57,2.76l-3.62,1.81
			c-0.64-1.34-1.74-2-3.29-2c-0.84,0-1.6,0.21-2.26,0.62c-0.67,0.41-1.19,0.98-1.56,1.72c-0.38,0.73-0.56,1.56-0.56,2.5
			c0,1.01,0.3,1.81,0.91,2.4c0.6,0.59,1.45,0.89,2.53,0.89c1.57,0,2.78-0.66,3.62-1.98l3.16,1.98c-0.71,1.12-1.69,1.99-2.92,2.61
			s-2.6,0.93-4.1,0.93C358.33,241,357,240.73,355.87,240.18z"/>
		<path class="st2" d="M386,226.01l-2.94,14.77h-4.06l0.27-1.46c-1.23,1.12-2.74,1.68-4.53,1.68c-1.15,0-2.21-0.27-3.18-0.8
			c-0.97-0.53-1.74-1.29-2.32-2.29c-0.58-1-0.86-2.17-0.86-3.53c0-1.63,0.36-3.1,1.08-4.41c0.72-1.31,1.71-2.33,2.95-3.07
			c1.24-0.74,2.62-1.11,4.12-1.11c2.27,0,3.87,0.74,4.8,2.22l0.38-2H386z M378.32,236.84c0.66-0.41,1.17-0.98,1.54-1.72
			c0.37-0.73,0.55-1.57,0.55-2.53c0-1.01-0.3-1.8-0.89-2.39c-0.6-0.59-1.42-0.88-2.48-0.88c-0.84,0-1.59,0.21-2.25,0.62
			c-0.66,0.41-1.17,0.98-1.54,1.72s-0.55,1.57-0.55,2.53c0,1.01,0.3,1.8,0.89,2.39c0.6,0.59,1.42,0.88,2.48,0.88
			C376.91,237.46,377.66,237.25,378.32,236.84z"/>
		<path class="st2" d="M406.09,220.41l-4.06,20.37h-4.06l0.3-1.48c-1.24,1.13-2.75,1.7-4.53,1.7c-1.15,0-2.21-0.27-3.18-0.8
			c-0.97-0.53-1.74-1.29-2.32-2.29c-0.58-1-0.87-2.17-0.87-3.53c0-1.63,0.36-3.1,1.08-4.41c0.72-1.31,1.71-2.33,2.95-3.07
			c1.24-0.74,2.62-1.11,4.12-1.11c1.08,0,2.03,0.18,2.84,0.55c0.81,0.37,1.46,0.91,1.94,1.62l1.51-7.55H406.09z M397.31,236.84
			c0.66-0.41,1.17-0.98,1.54-1.72c0.37-0.73,0.55-1.57,0.55-2.53c0-1.01-0.3-1.8-0.89-2.39c-0.6-0.59-1.42-0.88-2.48-0.88
			c-0.84,0-1.59,0.21-2.25,0.62c-0.66,0.41-1.17,0.98-1.54,1.72c-0.37,0.73-0.55,1.57-0.55,2.53c0,1.01,0.3,1.8,0.89,2.39
			c0.59,0.59,1.42,0.88,2.48,0.88C395.9,237.46,396.65,237.25,397.31,236.84z"/>
		<path class="st2" d="M409.81,240.18c-1.13-0.55-1.99-1.32-2.61-2.32c-0.61-1-0.92-2.16-0.92-3.47c0-1.63,0.38-3.09,1.15-4.39
			c0.77-1.3,1.83-2.32,3.18-3.07c1.35-0.75,2.88-1.12,4.58-1.12c1.5,0,2.81,0.27,3.92,0.82c1.12,0.55,1.98,1.32,2.59,2.32
			c0.61,1,0.92,2.16,0.92,3.47c0,1.63-0.38,3.09-1.14,4.39c-0.76,1.3-1.82,2.32-3.18,3.07c-1.36,0.75-2.89,1.13-4.6,1.13
			C412.24,241,410.94,240.73,409.81,240.18z M416.22,236.84c0.66-0.41,1.17-0.98,1.54-1.72c0.37-0.73,0.55-1.57,0.55-2.53
			c0-1.01-0.29-1.8-0.88-2.39c-0.59-0.59-1.41-0.88-2.47-0.88c-0.84,0-1.59,0.21-2.25,0.62c-0.66,0.41-1.17,0.98-1.54,1.72
			c-0.37,0.73-0.55,1.57-0.55,2.53c0,1.01,0.3,1.8,0.89,2.39c0.6,0.59,1.42,0.88,2.48,0.88
			C414.82,237.46,415.56,237.25,416.22,236.84z"/>
		<path class="st2" d="M425.71,240.57c-1.14-0.28-2.04-0.65-2.68-1.11l1.65-3.1c0.64,0.42,1.42,0.76,2.35,1.02
			c0.92,0.26,1.85,0.38,2.79,0.38c0.97,0,1.69-0.12,2.17-0.37c0.48-0.25,0.71-0.6,0.71-1.06c0-0.37-0.21-0.63-0.63-0.8
			c-0.42-0.16-1.1-0.34-2.03-0.52c-1.06-0.2-1.93-0.42-2.62-0.66c-0.69-0.24-1.28-0.63-1.78-1.17c-0.5-0.54-0.75-1.28-0.75-2.21
			c0-1.63,0.68-2.9,2.04-3.82c1.36-0.91,3.15-1.37,5.37-1.37c1.03,0,2.02,0.11,2.99,0.33c0.97,0.22,1.79,0.52,2.47,0.91l-1.54,3.13
			c-1.21-0.75-2.66-1.13-4.36-1.13c-0.93,0-1.64,0.14-2.13,0.41c-0.49,0.27-0.73,0.62-0.73,1.04c0,0.38,0.21,0.66,0.63,0.84
			c0.42,0.17,1.12,0.36,2.11,0.56c1.04,0.2,1.9,0.42,2.57,0.65c0.67,0.23,1.25,0.61,1.74,1.14c0.49,0.53,0.74,1.25,0.74,2.17
			c0,1.65-0.69,2.92-2.07,3.82c-1.38,0.9-3.17,1.35-5.37,1.35C428.06,241,426.85,240.86,425.71,240.57z"/>
	</g>
</g>
</svg>
