<?xml version="1.0" encoding="utf-8"?>
<!-- Generator: Adobe Illustrator 24.0.2, SVG Export Plug-In . SVG Version: 6.00 Build 0)  -->
<svg version="1.1" id="Capa_1" xmlns="http://www.w3.org/2000/svg" xmlns:xlink="http://www.w3.org/1999/xlink" x="0px" y="0px"
	 viewBox="0 0 52 52" style="enable-background:new 0 0 52 52;" xml:space="preserve">
<style type="text/css">
	.st0{fill:#40CAA7;}
	.st1{fill:#FFFFFF;}
	.st2{fill:none;}
	.st3{fill-rule:evenodd;clip-rule:evenodd;fill:#EA5B5B;}
	.st4{fill-rule:evenodd;clip-rule:evenodd;fill:#FFFFFF;}
</style>
<path class="st0" d="M26,51L26,51C12.19,51,1,39.81,1,26v0C1,12.19,12.19,1,26,1h0c13.81,0,25,11.19,25,25v0
	C51,39.81,39.81,51,26,51z"/>
<g>
	<path class="st1" d="M18.76,42.96c0-1.22,0-2.44,0-3.7c-2.5,0-4.98,0-7.49,0c-0.01-0.15-0.02-0.28-0.02-0.4c0-6.96,0-13.92,0-20.88
		c0-0.2,0.04-0.41,0.1-0.6c0.55-1.68,1.12-3.36,1.67-5.04c0.07-0.22,0.16-0.3,0.4-0.3c9.17,0.01,18.34,0.01,27.51,0.01
		c0.09,0,0.18,0,0.31,0c0,0.15,0,0.27,0,0.39c0,6,0,12,0.01,18c0,0.25-0.07,0.42-0.25,0.6c-2.66,2.65-5.32,5.31-7.97,7.97
		c-0.18,0.18-0.35,0.25-0.6,0.25c-1.61-0.01-3.23,0-4.84-0.01c-0.31,0-0.53,0.08-0.75,0.3c-1.06,1.09-2.15,2.16-3.23,3.23
		c-0.1,0.1-0.26,0.2-0.4,0.2c-1.44,0.01-2.89,0.01-4.33,0.01C18.85,42.98,18.81,42.97,18.76,42.96z M15.9,14.83
		c0,6.58,0,13.15,0,19.76c2.2,0,4.37,0,6.58,0c0,1.26,0,2.47,0,3.74c0.1-0.1,0.16-0.15,0.21-0.2c1.11-1.11,2.22-2.21,3.33-3.33
		c0.16-0.16,0.31-0.22,0.54-0.22c2.3,0.01,4.6,0.01,6.9,0c0.17,0,0.38-0.09,0.5-0.21c1.43-1.41,2.85-2.85,4.28-4.26
		c0.16-0.16,0.22-0.32,0.22-0.54c-0.01-4.8,0-9.59,0-14.39c0-0.11,0-0.22,0-0.34C30.92,14.83,23.42,14.83,15.9,14.83z"/>
	<path class="st1" d="M26.23,20.52c0,2.79,0,5.56,0,8.35c-0.93,0-1.84,0-2.78,0c0-2.77,0-5.55,0-8.35
		C24.36,20.52,25.28,20.52,26.23,20.52z"/>
	<path class="st1" d="M33.71,28.88c-0.92,0-1.82,0-2.73,0c0-2.79,0-5.56,0-8.36c0.9,0,1.81,0,2.73,0
		C33.71,23.3,33.71,26.07,33.71,28.88z"/>
</g>
<path class="st3" d="M45.2,13.58L45.2,13.58c-3.75,0-6.78-3.04-6.78-6.78v0c0-3.75,3.04-6.78,6.78-6.78h0
	c3.75,0,6.78,3.04,6.78,6.78v0C51.98,10.55,48.95,13.58,45.2,13.58z"/>
<path class="st4" d="M48.85,5.03l-0.94-0.94V4.07l0,0l-0.94-0.94c-0.05-0.05-0.12-0.07-0.19-0.07c-0.09,0-0.16,0.02-0.21,0.07
	L42.03,7.7C42,7.74,41.96,7.79,41.94,7.84l-0.49,2.38c-0.02,0.09,0.02,0.17,0.07,0.24c0.05,0.05,0.12,0.07,0.21,0.07
	c0.02,0,0.03,0,0.05,0l2.36-0.49c0.05-0.02,0.1-0.03,0.14-0.07l4.56-4.56C48.96,5.31,48.96,5.13,48.85,5.03L48.85,5.03z"/>
</svg>
