<?xml version="1.0" encoding="utf-8"?>
<!-- Generator: Adobe Illustrator 24.0.2, SVG Export Plug-In . SVG Version: 6.00 Build 0)  -->
<svg version="1.1" id="Capa_1" xmlns="http://www.w3.org/2000/svg" xmlns:xlink="http://www.w3.org/1999/xlink" x="0px" y="0px"
	 viewBox="0 0 52 52" style="enable-background:new 0 0 52 52;" xml:space="preserve">
<style type="text/css">
	.st0{fill:#40CAA7;}
	.st1{fill:#FFFFFF;}
	.st2{fill:none;}
</style>
<path class="st0" d="M26,51L26,51C12.19,51,1,39.81,1,26v0C1,12.19,12.19,1,26,1h0c13.81,0,25,11.19,25,25v0
	C51,39.81,39.81,51,26,51z"/>
<path class="st1" d="M43.36,15.05c-1.11,0.5-2.34,0.81-3.54,1.01c0.57-0.1,1.41-1.13,1.74-1.54c0.51-0.64,0.94-1.36,1.17-2.14
	c0.03-0.06,0.05-0.14-0.01-0.18c-0.08-0.03-0.13-0.01-0.19,0.02c-1.34,0.72-2.72,1.24-4.2,1.61c-0.12,0.03-0.21,0-0.29-0.08
	c-0.12-0.14-0.24-0.27-0.37-0.37c-0.62-0.53-1.28-0.94-2.03-1.25c-0.98-0.4-2.06-0.57-3.12-0.5c-1.03,0.07-2.04,0.36-2.96,0.84
	c-0.92,0.48-1.73,1.15-2.39,1.95c-0.67,0.83-1.17,1.81-1.43,2.85c-0.25,1-0.23,2-0.08,3.01c0.02,0.17,0.01,0.19-0.14,0.17
	c-5.76-0.86-10.54-2.92-14.42-7.34c-0.17-0.19-0.26-0.19-0.4,0.01c-1.7,2.54-0.87,6.63,1.25,8.64c0.28,0.27,0.57,0.54,0.89,0.78
	c-0.11,0.02-1.53-0.13-2.78-0.78c-0.17-0.11-0.25-0.05-0.27,0.15c-0.02,0.28,0.01,0.53,0.05,0.83c0.33,2.58,2.11,4.96,4.56,5.89
	c0.29,0.12,0.61,0.23,0.92,0.28c-0.56,0.12-1.13,0.21-2.73,0.08c-0.2-0.04-0.27,0.06-0.2,0.25c1.2,3.27,3.79,4.25,5.73,4.8
	c0.26,0.05,0.52,0.05,0.78,0.11c-0.02,0.02-0.03,0.02-0.05,0.05c-0.64,0.98-2.88,1.71-3.92,2.08c-1.89,0.66-3.95,0.96-5.95,0.76
	c-0.32-0.05-0.39-0.04-0.47,0c-0.09,0.05-0.01,0.13,0.09,0.21c0.41,0.27,0.82,0.51,1.24,0.73c1.27,0.67,2.59,1.21,3.98,1.59
	c7.14,1.97,15.19,0.52,20.56-4.81c4.21-4.19,5.69-9.96,5.69-15.74c0-0.23,0.27-0.35,0.43-0.47c1.1-0.82,1.98-1.81,2.8-2.91
	c0.18-0.25,0.19-0.47,0.19-0.56c0-0.02,0-0.03,0-0.03C43.5,14.96,43.5,14.98,43.36,15.05z"/>
</svg>
